<svg xmlns="http://www.w3.org/2000/svg" width="1200" height="630" viewBox="0 0 1200 630">
  <defs>
    <linearGradient id="bg" x1="0%" y1="0%" x2="100%" y2="100%">
      <stop offset="0%" style="stop-color:#0a0a1a"/>
      <stop offset="100%" style="stop-color:#1a1a2e"/>
    </linearGradient>
  </defs>
  <rect width="1200" height="630" fill="url(#bg)"/>
  <g opacity="0.04" stroke="#915EFF" stroke-width="1">
    <line x1="0" y1="90" x2="1200" y2="90"/><line x1="0" y1="180" x2="1200" y2="180"/>
    <line x1="0" y1="270" x2="1200" y2="270"/><line x1="0" y1="360" x2="1200" y2="360"/>
    <line x1="0" y1="450" x2="1200" y2="450"/><line x1="0" y1="540" x2="1200" y2="540"/>
  </g>
  <!-- Transcript panel -->
  <rect x="40" y="60" width="420" height="480" rx="14" fill="#ffffff06" stroke="#915EFF33" stroke-width="1"/>
  <rect x="40" y="60" width="420" height="50" rx="14" fill="#915EFF15"/>
  <rect x="40" y="96" width="420" height="14" fill="#915EFF15"/>
  <text x="60" y="92" font-family="sans-serif" font-size="14" fill="#fff" font-weight="bold">🎙  Live Transcript</text>
  <text x="380" y="92" font-family="sans-serif" font-size="11" fill="#00ca4e">● LIVE</text>
  <!-- Transcript entries -->
  <circle cx="65" cy="135" r="14" fill="#915EFF33"/>
  <text x="65" y="139" font-family="sans-serif" font-size="10" fill="#915EFF" text-anchor="middle">VK</text>
  <text x="90" y="128" font-family="sans-serif" font-size="10" fill="#888">Vikram · 2:14 PM</text>
  <rect x="90" y="135" width="340" height="10" rx="3" fill="#ffffff15"/>
  <rect x="90" y="151" width="280" height="10" rx="3" fill="#ffffff10"/>

  <circle cx="65" cy="183" r="14" fill="#4ECDC433"/>
  <text x="65" y="187" font-family="sans-serif" font-size="10" fill="#4ECDC4" text-anchor="middle">AS</text>
  <text x="90" y="176" font-family="sans-serif" font-size="10" fill="#888">Arjun · 2:15 PM</text>
  <rect x="90" y="183" width="310" height="10" rx="3" fill="#ffffff15"/>
  <rect x="90" y="199" width="250" height="10" rx="3" fill="#ffffff10"/>

  <circle cx="65" cy="231" r="14" fill="#FFD93D33"/>
  <text x="65" y="235" font-family="sans-serif" font-size="10" fill="#FFD93D" text-anchor="middle">PM</text>
  <text x="90" y="224" font-family="sans-serif" font-size="10" fill="#888">Priya · 2:16 PM</text>
  <rect x="90" y="231" width="320" height="10" rx="3" fill="#ffffff15"/>
  <rect x="90" y="247" width="200" height="10" rx="3" fill="#ffffff10"/>

  <circle cx="65" cy="279" r="14" fill="#915EFF33"/>
  <text x="65" y="283" font-family="sans-serif" font-size="10" fill="#915EFF" text-anchor="middle">VK</text>
  <text x="90" y="272" font-family="sans-serif" font-size="10" fill="#888">Vikram · 2:17 PM</text>
  <rect x="90" y="279" width="350" height="10" rx="3" fill="#ffffff15"/>
  <rect x="90" y="295" width="290" height="10" rx="3" fill="#ffffff10"/>
  <rect x="90" y="311" width="180" height="10" rx="3" fill="#ffffff08"/>

  <!-- AI Suggestions box -->
  <rect x="55" y="340" width="390" height="90" rx="10" fill="#915EFF11" stroke="#915EFF33" stroke-width="1"/>
  <text x="72" y="363" font-family="sans-serif" font-size="11" fill="#915EFF">✦  AI Suggestion (real-time)</text>
  <rect x="72" y="372" width="340" height="10" rx="3" fill="#ffffff20"/>
  <rect x="72" y="388" width="280" height="10" rx="3" fill="#ffffff15"/>
  <rect x="72" y="404" width="320" height="10" rx="3" fill="#ffffff12"/>

  <!-- Live waveform -->
  <text x="60" y="455" font-family="sans-serif" font-size="11" fill="#888">Audio Input</text>
  <g transform="translate(60, 460)">
    <rect x="0" y="15" width="6" height="20" rx="3" fill="#915EFF55"/>
    <rect x="10" y="5" width="6" height="40" rx="3" fill="#915EFF"/>
    <rect x="20" y="18" width="6" height="14" rx="3" fill="#915EFF55"/>
    <rect x="30" y="8" width="6" height="34" rx="3" fill="#915EFF88"/>
    <rect x="40" y="12" width="6" height="26" rx="3" fill="#915EFF"/>
    <rect x="50" y="20" width="6" height="10" rx="3" fill="#915EFF44"/>
    <rect x="60" y="6" width="6" height="38" rx="3" fill="#915EFF"/>
    <rect x="70" y="14" width="6" height="22" rx="3" fill="#915EFF66"/>
    <rect x="80" y="10" width="6" height="30" rx="3" fill="#915EFF88"/>
    <rect x="90" y="18" width="6" height="14" rx="3" fill="#915EFF44"/>
    <rect x="100" y="4" width="6" height="42" rx="3" fill="#915EFF"/>
  </g>

  <!-- Q&A Chat panel -->
  <rect x="480" y="60" width="400" height="480" rx="14" fill="#ffffff06" stroke="#4ECDC433" stroke-width="1"/>
  <rect x="480" y="60" width="400" height="50" rx="14" fill="#4ECDC415"/>
  <rect x="480" y="96" width="400" height="14" fill="#4ECDC415"/>
  <text x="500" y="92" font-family="sans-serif" font-size="14" fill="#fff" font-weight="bold">💬  Ask About Meeting</text>
  <!-- Chat bubbles -->
  <rect x="500" y="130" width="300" height="50" rx="10" fill="#ffffff10"/>
  <text x="516" y="151" font-family="sans-serif" font-size="12" fill="#aaa">What were the key decisions?</text>
  <text x="516" y="169" font-family="sans-serif" font-size="10" fill="#888">You · just now</text>

  <rect x="500" y="196" width="350" height="100" rx="10" fill="#4ECDC415" stroke="#4ECDC422" stroke-width="1"/>
  <text x="516" y="216" font-family="sans-serif" font-size="11" fill="#4ECDC4">✦  AI (sub-second)</text>
  <rect x="516" y="224" width="310" height="10" rx="3" fill="#ffffff20"/>
  <rect x="516" y="240" width="270" height="10" rx="3" fill="#ffffff15"/>
  <rect x="516" y="256" width="300" height="10" rx="3" fill="#ffffff18"/>
  <rect x="516" y="272" width="200" height="10" rx="3" fill="#ffffff12"/>

  <rect x="500" y="314" width="280" height="50" rx="10" fill="#ffffff10"/>
  <text x="516" y="335" font-family="sans-serif" font-size="12" fill="#aaa">Summarize action items</text>
  <text x="516" y="353" font-family="sans-serif" font-size="10" fill="#888">You · just now</text>

  <rect x="500" y="382" width="350" height="80" rx="10" fill="#4ECDC415" stroke="#4ECDC422" stroke-width="1"/>
  <text x="516" y="402" font-family="sans-serif" font-size="11" fill="#4ECDC4">✦  AI Response</text>
  <text x="516" y="418" font-family="sans-serif" font-size="11" fill="#fff">1. Vikram → finalize API design</text>
  <text x="516" y="434" font-family="sans-serif" font-size="11" fill="#fff">2. Arjun → review DB schema</text>
  <text x="516" y="450" font-family="sans-serif" font-size="11" fill="#fff">3. Priya → present demo Friday</text>

  <!-- Input box -->
  <rect x="500" y="480" width="350" height="44" rx="22" fill="#ffffff08" stroke="#4ECDC433" stroke-width="1"/>
  <text x="520" y="507" font-family="sans-serif" font-size="12" fill="#555">Ask anything about this meeting...</text>

  <!-- Stats panel -->
  <rect x="900" y="60" width="260" height="480" rx="14" fill="#ffffff06" stroke="#915EFF33" stroke-width="1"/>
  <text x="920" y="100" font-family="sans-serif" font-size="14" fill="#fff" font-weight="bold">Live Stats</text>
  <rect x="915" y="108" width="230" height="1" fill="#915EFF22"/>
  <text x="920" y="132" font-family="sans-serif" font-size="11" fill="#aaa">Response Latency</text>
  <text x="920" y="165" font-family="sans-serif" font-size="36" fill="#915EFF" font-weight="bold">&lt;1s</text>
  <rect x="915" y="178" width="230" height="1" fill="#ffffff11"/>
  <text x="920" y="200" font-family="sans-serif" font-size="11" fill="#aaa">Words Transcribed</text>
  <text x="920" y="233" font-family="sans-serif" font-size="36" fill="#4ECDC4" font-weight="bold">2,847</text>
  <rect x="915" y="246" width="230" height="1" fill="#ffffff11"/>
  <text x="920" y="268" font-family="sans-serif" font-size="11" fill="#aaa">Accuracy</text>
  <text x="920" y="301" font-family="sans-serif" font-size="36" fill="#FFD93D" font-weight="bold">97.4%</text>
  <rect x="915" y="314" width="230" height="1" fill="#ffffff11"/>
  <text x="920" y="336" font-family="sans-serif" font-size="11" fill="#aaa">Protocol</text>
  <text x="920" y="366" font-family="sans-serif" font-size="22" fill="#fff" font-weight="bold">WebSocket</text>
  <text x="920" y="386" font-family="sans-serif" font-size="11" fill="#888">bi-directional · real-time</text>
  <rect x="915" y="400" width="230" height="1" fill="#ffffff11"/>
  <!-- Participants -->
  <text x="920" y="422" font-family="sans-serif" font-size="11" fill="#aaa">Meeting Duration</text>
  <text x="920" y="455" font-family="sans-serif" font-size="30" fill="#fff" font-weight="bold">42:18</text>
  <text x="920" y="478" font-family="sans-serif" font-size="11" fill="#888">3 participants · 4 topics</text>

  <!-- Title -->
  <text x="600" y="578" font-family="sans-serif" font-size="30" fill="#fff" font-weight="bold" text-anchor="middle">TwinMind – AI Meeting Copilot</text>
  <text x="600" y="607" font-family="sans-serif" font-size="14" fill="#915EFF" text-anchor="middle">WebSockets · LLMs · React.js · Real-time Transcription</text>
</svg>
