<svg xmlns="http://www.w3.org/2000/svg" width="1200" height="630" viewBox="0 0 1200 630">
  <defs>
    <linearGradient id="bg" x1="0%" y1="0%" x2="100%" y2="100%">
      <stop offset="0%" style="stop-color:#0d1117"/>
      <stop offset="100%" style="stop-color:#1a1a2e"/>
    </linearGradient>
  </defs>
  <rect width="1200" height="630" fill="url(#bg)"/>
  <g opacity="0.05" stroke="#4ECDC4" stroke-width="1">
    <line x1="0" y1="105" x2="1200" y2="105"/><line x1="0" y1="210" x2="1200" y2="210"/>
    <line x1="0" y1="315" x2="1200" y2="315"/><line x1="0" y1="420" x2="1200" y2="420"/>
    <line x1="0" y1="525" x2="1200" y2="525"/>
  </g>
  <!-- Sidebar -->
  <rect x="40" y="80" width="220" height="460" rx="16" fill="#ffffff06" stroke="#4ECDC422" stroke-width="1"/>
  <text x="60" y="115" font-family="sans-serif" font-size="16" fill="#4ECDC4" font-weight="bold">WiseLab.AI</text>
  <rect x="55" y="130" width="190" height="1" fill="#4ECDC422"/>
  <!-- Nav items -->
  <rect x="55" y="145" width="190" height="36" rx="8" fill="#4ECDC422"/>
  <text x="75" y="168" font-family="sans-serif" font-size="13" fill="#4ECDC4">📚  Courses</text>
  <text x="75" y="205" font-family="sans-serif" font-size="13" fill="#aaa">📝  My Notes</text>
  <text x="75" y="242" font-family="sans-serif" font-size="13" fill="#aaa">📊  Analytics</text>
  <text x="75" y="279" font-family="sans-serif" font-size="13" fill="#aaa">🧠  AI Quizzes</text>
  <text x="75" y="316" font-family="sans-serif" font-size="13" fill="#aaa">📈  Progress</text>
  <!-- Progress bars -->
  <rect x="55" y="450" width="190" height="1" fill="#4ECDC422"/>
  <text x="60" y="475" font-family="sans-serif" font-size="11" fill="#aaa">Overall Progress</text>
  <rect x="60" y="485" width="180" height="8" rx="4" fill="#ffffff11"/>
  <rect x="60" y="485" width="126" height="8" rx="4" fill="#4ECDC4"/>
  <text x="60" y="510" font-family="sans-serif" font-size="11" fill="#4ECDC4">70% complete</text>

  <!-- Main content -->
  <rect x="280" y="80" width="620" height="460" rx="16" fill="#ffffff05" stroke="#4ECDC422" stroke-width="1"/>
  <!-- Header -->
  <text x="305" y="120" font-family="sans-serif" font-size="18" fill="#fff" font-weight="bold">Introduction to Machine Learning</text>
  <text x="305" y="145" font-family="sans-serif" font-size="13" fill="#aaa">AI-generated notes · Updated 2h ago</text>
  <rect x="300" y="158" width="580" height="1" fill="#ffffff11"/>
  <!-- Note content simulation -->
  <rect x="305" y="170" width="560" height="12" rx="4" fill="#ffffff15"/>
  <rect x="305" y="190" width="480" height="12" rx="4" fill="#ffffff11"/>
  <rect x="305" y="210" width="520" height="12" rx="4" fill="#ffffff13"/>
  <rect x="305" y="230" width="400" height="12" rx="4" fill="#ffffff10"/>
  <!-- Key concept box -->
  <rect x="305" y="258" width="560" height="80" rx="10" fill="#4ECDC411" stroke="#4ECDC433" stroke-width="1"/>
  <text x="320" y="280" font-family="sans-serif" font-size="11" fill="#4ECDC4">✦  KEY CONCEPT</text>
  <rect x="320" y="290" width="340" height="10" rx="4" fill="#ffffff15"/>
  <rect x="320" y="308" width="280" height="10" rx="4" fill="#ffffff10"/>
  <rect x="320" y="326" width="200" height="10" rx="4" fill="#ffffff08"/>
  <!-- Quiz card -->
  <rect x="305" y="355" width="260" height="160" rx="10" fill="#915EFF11" stroke="#915EFF33" stroke-width="1"/>
  <text x="320" y="380" font-family="sans-serif" font-size="12" fill="#915EFF">🧠  AI Quiz Generated</text>
  <text x="320" y="402" font-family="sans-serif" font-size="11" fill="#fff">Q: What is gradient descent?</text>
  <rect x="320" y="415" width="230" height="28" rx="6" fill="#ffffff08" stroke="#915EFF22" stroke-width="1"/>
  <text x="332" y="433" font-family="sans-serif" font-size="11" fill="#aaa">○  An optimization algorithm</text>
  <rect x="320" y="449" width="230" height="28" rx="6" fill="#915EFF22" stroke="#915EFF55" stroke-width="1"/>
  <text x="332" y="467" font-family="sans-serif" font-size="11" fill="#fff">●  Minimizes loss functions</text>
  <rect x="320" y="483" width="230" height="28" rx="6" fill="#ffffff08" stroke="#915EFF22" stroke-width="1"/>
  <text x="332" y="501" font-family="sans-serif" font-size="11" fill="#aaa">○  A type of neural net</text>

  <!-- Stats panel -->
  <rect x="580" y="355" width="280" height="160" rx="10" fill="#ffffff05" stroke="#4ECDC422" stroke-width="1"/>
  <text x="600" y="380" font-family="sans-serif" font-size="12" fill="#aaa">Instructor Workload Saved</text>
  <text x="600" y="420" font-family="sans-serif" font-size="48" fill="#4ECDC4" font-weight="bold">50%</text>
  <text x="600" y="450" font-family="sans-serif" font-size="11" fill="#aaa">Deployed across</text>
  <text x="600" y="468" font-family="sans-serif" font-size="22" fill="#fff" font-weight="bold">11+ States</text>
  <text x="600" y="490" font-family="sans-serif" font-size="11" fill="#aaa">Brahma Kumaris · India</text>

  <!-- Right stats panel -->
  <rect x="920" y="80" width="240" height="460" rx="16" fill="#ffffff05" stroke="#4ECDC422" stroke-width="1"/>
  <text x="940" y="120" font-family="sans-serif" font-size="14" fill="#fff" font-weight="bold">Dashboard</text>
  <rect x="935" y="130" width="210" height="1" fill="#4ECDC422"/>
  <!-- Stat items -->
  <text x="940" y="158" font-family="sans-serif" font-size="11" fill="#aaa">Notes Auto-Generated</text>
  <text x="940" y="182" font-family="sans-serif" font-size="28" fill="#FFD93D" font-weight="bold">12,400+</text>
  <rect x="935" y="200" width="210" height="1" fill="#ffffff11"/>
  <text x="940" y="225" font-family="sans-serif" font-size="11" fill="#aaa">Quizzes Created</text>
  <text x="940" y="249" font-family="sans-serif" font-size="28" fill="#915EFF" font-weight="bold">3,200+</text>
  <rect x="935" y="267" width="210" height="1" fill="#ffffff11"/>
  <text x="940" y="292" font-family="sans-serif" font-size="11" fill="#aaa">Active Learners</text>
  <text x="940" y="316" font-family="sans-serif" font-size="28" fill="#4ECDC4" font-weight="bold">5,000+</text>
  <!-- Mini bar chart -->
  <rect x="935" y="335" width="210" height="1" fill="#ffffff11"/>
  <text x="940" y="360" font-family="sans-serif" font-size="11" fill="#aaa">Weekly Activity</text>
  <rect x="940" y="380" width="25" height="60" rx="4" fill="#915EFF44"/>
  <rect x="972" y="400" width="25" height="40" rx="4" fill="#915EFF44"/>
  <rect x="1004" y="370" width="25" height="70" rx="4" fill="#915EFF"/>
  <rect x="1036" y="390" width="25" height="50" rx="4" fill="#915EFF66"/>
  <rect x="1068" y="375" width="25" height="65" rx="4" fill="#915EFF88"/>
  <rect x="1100" y="360" width="25" height="80" rx="4" fill="#915EFF"/>

  <!-- Title -->
  <text x="600" y="575" font-family="sans-serif" font-size="32" fill="#fff" font-weight="bold" text-anchor="middle">WiseLab.AI</text>
  <text x="600" y="605" font-family="sans-serif" font-size="15" fill="#4ECDC4" text-anchor="middle">AI Learning Management System · LLMs · Next.js · PostgreSQL</text>
</svg>
